<svg width="17" height="17" viewBox="0 0 17 17" fill="none" xmlns="http://www.w3.org/2000/svg">
<path d="M3.6371 3.65571e-06L16.2711 3.10346e-06C16.4644 3.09501e-06 16.6498 0.0767949 16.7865 0.213489C16.9232 0.350181 17 0.535577 17 0.728889L17 13.3629C17 13.5562 16.9232 13.7416 16.7865 13.8783C16.6498 14.015 16.4644 14.0918 16.2711 14.0918C16.0778 14.0918 15.8924 14.015 15.7557 13.8783C15.619 13.7416 15.5422 13.5562 15.5422 13.3629L15.5422 2.49036L1.23178 16.7887C1.09646 16.924 0.912929 17 0.72156 17C0.53019 17 0.346658 16.924 0.21134 16.7887C0.0760212 16.6533 -2.17495e-08 16.4698 -3.15404e-08 16.2784C-4.13312e-08 16.0871 0.0760211 15.9035 0.21134 15.7682L14.5096 1.45777L3.6371 1.45777C3.44379 1.45777 3.25839 1.38098 3.1217 1.24429C2.98501 1.1076 2.90821 0.922201 2.90821 0.728889C2.90821 0.535578 2.98501 0.350181 3.1217 0.213489C3.25839 0.0767954 3.44379 3.66416e-06 3.6371 3.65571e-06Z" fill="black"/>
</svg>
