<svg width="111" height="60" viewBox="0 0 111 60" fill="none" xmlns="http://www.w3.org/2000/svg">
<g clip-path="url(#clip0_1131_140)">
<path d="M28.4125 8.61805C29.6915 11.224 30.9704 13.8301 32.2636 16.4265C32.4537 16.8077 32.3777 17.0983 32.1399 17.4127C28.7025 21.9625 25.2747 26.517 21.842 31.0668C18.6756 35.2641 15.5045 39.4613 12.338 43.6585C12.2239 43.811 12.0861 43.9492 11.9625 44.0968C11.4965 44.2112 11.3777 44.1159 11.487 43.6109C11.6344 42.9391 11.8151 42.2722 12.0243 41.6147C12.6661 39.5899 13.1748 37.5271 13.8071 35.4975C13.8594 35.3308 13.8499 35.1735 13.8167 35.0068C13.7406 34.4018 14.1922 34.0301 14.4537 33.5776C14.6296 33.2774 14.8531 33.0011 14.9244 32.6438C16.9593 29.0849 18.9038 25.4785 20.9102 21.9053C23.2683 17.7033 25.5932 13.4823 27.9371 9.27074C28.0702 9.03253 28.1463 8.75144 28.4173 8.61328L28.4125 8.61805Z" fill="#8BBC73"/>
<path d="M33.0473 44.9224C29.2057 46.6851 25.369 48.4526 21.5274 50.2106C14.4482 53.4455 7.36421 56.6756 0.284971 59.9057C0.213655 59.939 0.137586 59.9533 0.0472527 59.9819C-0.104887 59.6056 0.147094 59.3483 0.284971 59.0624C0.708108 58.9814 0.603513 58.5384 0.798441 58.3002C0.926809 57.8952 1.19781 57.5617 1.34995 57.1663C2.65264 54.7699 3.96484 52.3831 5.31508 50.0105C5.44345 49.7914 5.51952 49.5103 5.85708 49.5198C7.41651 49.4817 8.89987 48.991 10.4165 48.7004C15.4371 47.7237 20.4339 46.6565 25.445 45.637C27.5037 45.2177 29.5576 44.7747 31.6209 44.3888C31.9252 44.3554 32.2343 44.3793 32.5243 44.2649C32.8571 44.1696 33.1946 44.0696 33.5465 44.0934C33.7319 44.1077 33.9648 44.0696 34.0314 44.2983C34.098 44.5317 33.7984 44.465 33.7271 44.5984C33.4942 44.6937 33.2422 44.7366 33.0568 44.9224H33.0473Z" fill="#8BBC73"/>
<path d="M33.8791 20.106C35.7096 24.308 37.5495 28.5052 39.3704 32.712C42.9314 40.9302 46.4782 49.1531 50.0297 57.3761C50.2009 57.7763 50.3435 58.186 50.4956 58.591C50.6478 58.7768 50.5717 58.8911 50.3815 58.9721C49.9013 58.8292 49.7635 58.367 49.5352 58.0145C47.2389 54.4128 44.857 50.8682 42.5226 47.2951C40.0028 43.4409 37.4877 39.5867 34.9584 35.742C34.7302 35.3942 34.5115 35.0369 34.3783 34.6367C34.3498 34.5462 34.3356 34.4557 34.326 34.3604C33.9837 30.287 33.6509 26.2136 33.4512 22.1355C33.4227 21.559 33.2183 20.9826 33.3467 20.4061C33.3989 20.1774 33.3942 19.6534 33.8791 20.1012V20.106Z" fill="#457456"/>
<path d="M28.4128 8.61839C27.8042 10.262 26.801 11.7008 25.9738 13.2301C24.0673 16.7556 22.0704 20.2239 20.1164 23.7208C18.4334 26.7318 16.7598 29.7475 15.0815 32.7585C14.9722 32.9157 14.8676 33.0872 14.6727 32.8537C14.5443 32.5774 14.6251 32.3154 14.7059 32.0486C16.3367 26.6937 17.7915 21.2911 19.3557 15.9171C20.5966 11.6627 21.7329 7.37494 23.0498 3.14435C23.2638 2.46308 23.5158 1.79133 23.7297 1.10529C23.8486 0.747975 23.8819 0.357313 24.2337 0C25.641 2.90138 27.0292 5.75989 28.4128 8.61839Z" fill="#457456"/>
<path d="M23.7286 1.10547C23.4243 2.84439 22.8348 4.51185 22.3593 6.20313C20.6002 12.4109 18.8411 18.6233 17.044 24.8215C16.307 27.3608 15.7222 29.9478 14.7951 32.4299C14.7381 32.5776 14.7714 32.7586 14.7619 32.9254C14.7476 33.1588 14.7096 33.3875 14.6002 33.5971C14.5241 34.1117 13.9394 34.3594 13.9251 34.9025C13.9156 35.5171 13.559 36.003 13.2785 36.5033C11.0012 40.5242 8.77613 44.5785 6.54158 48.6233C6.34665 48.9711 6.22304 49.4094 5.78088 49.5666C5.67629 49.7334 5.56694 49.9001 5.46234 50.0716C4.91559 50.2813 4.37359 50.5147 3.7793 50.5624C4.84903 47.8706 5.9045 45.1741 6.98849 42.4871C12.4703 28.8377 17.9711 15.1836 23.4766 1.53424C23.5384 1.38179 23.643 1.24839 23.7286 1.11023V1.10547Z" fill="#5AA273"/>
<path d="M34.5313 34.6071C34.5361 34.6595 34.5456 34.7071 34.5503 34.7595C35.2112 35.8982 34.9545 37.1797 35.0828 38.3946C35.2397 39.9239 35.3015 41.4627 35.4489 42.9968C35.4822 43.3493 35.5392 43.7114 35.3823 44.0544C35.2159 44.064 35.0495 44.0735 34.8831 44.0783C34.75 44.0783 34.6169 44.083 34.4838 44.0354C34.422 44.0068 34.3744 43.9592 34.3411 43.8972C34.6692 43.7591 35.021 43.7352 34.5313 43.2445C31.1272 39.8382 27.7754 36.3841 24.3713 32.9777C23.8293 32.4346 23.7912 32.0821 24.2667 31.4723C25.7785 29.5332 27.2239 27.5466 28.6977 25.5742C28.8927 25.6504 28.9782 25.8315 29.0781 25.9935C30.6327 28.447 32.254 30.8529 33.8514 33.2779C34.1224 33.6924 34.3554 34.1354 34.5313 34.6023V34.6071Z" fill="#A1D28E"/>
<path d="M34.3463 43.901C34.4176 43.9105 34.4842 43.9201 34.5555 43.9296C34.3748 44.5156 33.8281 43.9534 33.5523 44.2488C33.2195 44.306 32.8867 44.3631 32.5539 44.4155C32.3067 44.6109 31.9691 44.3774 31.7219 44.5823C27.6521 45.416 23.5824 46.245 19.5174 47.0787C16.4461 47.7076 13.3748 48.3507 10.3035 48.9796C8.95801 49.2559 7.60302 49.5037 6.25753 49.7848C6.01982 49.8324 5.82013 49.9182 5.77734 49.5704C8.49208 44.6823 11.2068 39.7943 13.9263 34.9062C14.1688 35.1063 14.0927 35.3398 14.0166 35.5875C13.2559 38.2078 12.4905 40.8281 11.7488 43.4579C11.6918 43.6676 11.2544 44.0963 11.958 44.0916C11.8296 44.3298 11.706 44.568 11.5063 44.9396C13.2559 44.7109 14.9295 44.8443 16.5792 44.6871C18.0674 44.5489 19.5555 44.5489 21.0388 44.4584C24.2575 44.2583 27.4857 44.2059 30.7092 44.0344C31.9216 43.9677 33.1339 43.9058 34.3463 43.8962V43.901Z" fill="#A1D28E"/>
<path d="M35.3817 44.0538C35.0441 43.4202 35.1535 42.7055 35.0822 42.0433C34.8777 40.0281 34.8254 37.9985 34.7018 35.9785C34.678 35.5736 34.5972 35.1686 34.5449 34.7637C38.6479 41.0333 42.7509 47.303 46.854 53.5774C48.014 55.3544 49.1741 57.1315 50.3341 58.9085C50.4387 59.0181 50.4197 59.1229 50.3341 59.2325C48.3421 57.4316 46.5734 55.4164 44.6812 53.5155C41.7573 50.576 38.8429 47.6222 35.9237 44.6732C35.7288 44.4778 35.5576 44.2634 35.3722 44.0586L35.3817 44.0538Z" fill="#8BBC73"/>
<path d="M83.2732 34.4368C82.6171 36.3758 81.961 38.3101 81.3049 40.2491C81.1528 40.6921 79.8358 41.0304 79.4935 40.716C79.4412 40.6683 79.3936 40.573 79.3984 40.5063C79.5173 38.9199 78.5902 37.605 78.2383 36.1424C78.0719 35.4468 77.7867 34.7846 77.4776 33.8698C77.2257 35.5992 77.0022 37.1047 76.7883 38.6102C76.7074 39.1867 76.6171 39.7631 76.5981 40.3444C76.5838 40.735 76.4079 40.7827 76.0846 40.7969C75.6139 40.816 75.4475 40.7922 75.5474 40.1824C75.9562 37.7241 76.27 35.2467 76.6123 32.7788C76.6694 32.3787 76.7692 31.9499 76.1036 31.6212C77.2637 31.4592 78.2193 31.4163 79.0894 30.9494C79.4982 30.7303 79.5268 31.24 79.6123 31.4973C80.1971 33.2219 80.7724 34.9513 81.3524 36.695C82.0799 35.6945 83.0688 32.2357 82.7883 31.5926C83.7439 31.4592 84.7233 31.4687 85.5886 30.9685C85.9784 30.7445 86.045 31.0733 86.0878 31.3686C86.4158 33.7031 86.7439 36.0328 87.0719 38.3672C87.186 39.1771 87.148 40.0252 87.9515 40.7922C86.6108 40.7922 85.5125 40.7922 84.4142 40.7922C84.2383 40.7922 84.0529 40.7493 84.129 40.5159C84.5854 39.1152 83.9198 37.7908 83.858 36.4282C83.8295 35.766 83.6773 35.1133 83.5822 34.4558C83.4824 34.3129 83.3826 34.3177 83.278 34.4558L83.2732 34.4368Z" fill="#131313"/>
<path d="M104.306 36.8833C104.472 38.2982 104.059 39.5322 104.738 40.7804C103.555 40.7804 102.456 40.7804 101.358 40.7804C101.025 40.7804 100.973 40.6136 101.149 40.3611C101.42 39.9657 101.382 39.5179 101.382 39.0748C101.382 37.2454 101.387 35.4159 101.382 33.5817C101.382 32.9052 101.562 32.1858 100.73 31.5903C101.981 31.4712 102.984 31.3807 103.935 30.9471C104.448 30.7137 104.339 31.2377 104.339 31.495C104.353 32.8814 104.344 34.2678 104.344 35.8542C105.542 34.6346 106.654 33.5531 107.643 32.3526C107.71 32.2716 107.715 32.1382 107.776 32.0524C107.967 31.7951 107.596 31.3283 107.938 31.2377C108.409 31.1186 108.941 31.1234 109.421 31.2044C110.025 31.3092 109.621 31.6427 109.455 31.8237C108.623 32.7146 107.772 33.5865 106.921 34.4631C106.726 34.6632 106.526 34.8156 106.749 35.1491C107.7 36.5784 108.475 38.122 109.564 39.4559C109.925 39.9038 110.363 40.2801 111 40.7042C109.431 41.0662 108.09 40.9471 106.845 40.2897C105.561 39.6132 105.295 38.1267 104.306 36.8738V36.8833Z" fill="#131313"/>
<path d="M34.53 34.6069C33.2416 32.6822 31.9389 30.767 30.6742 28.8232C29.9848 27.7608 29.1956 26.7556 28.7012 25.574C30.0894 23.6922 31.473 21.8056 32.8707 19.9285C33.0419 19.6998 33.1513 19.2806 33.4888 19.3568C33.7788 19.4187 33.8216 19.8094 33.8834 20.1048C33.389 19.938 33.5459 20.3382 33.5601 20.524C33.6362 21.5674 33.6362 22.625 33.7646 23.6541C33.8977 24.6974 33.8834 25.7408 34.007 26.7794C34.2352 28.7184 34.2875 30.6812 34.3779 32.6345C34.4064 33.2968 34.6631 33.9352 34.5348 34.6069H34.53Z" fill="#5AA273"/>
<path d="M47.5912 36.8236C48.2948 35.1132 48.9937 33.5744 49.5595 31.9927C49.8162 31.2733 50.1585 30.9589 50.9668 31.1018C50.0064 33.4505 49.0508 35.7945 48.0904 38.1337C47.7956 38.8484 47.4914 39.5582 47.2061 40.2776C47.0872 40.5778 46.9779 40.7969 46.5785 40.7969C46.2124 40.7969 46.0365 40.6492 45.8891 40.3443C44.5294 37.4763 43.1696 34.6035 41.7861 31.745C41.5912 31.3353 41.7101 31.259 42.0809 31.2638C42.8606 31.2781 43.6308 31.1876 44.3725 30.9589C44.8146 30.8255 44.8717 31.1209 45.0001 31.3877C45.8416 33.1552 46.6831 34.9227 47.5912 36.8188V36.8236Z" fill="#131313"/>
<path d="M3.7704 50.5676C4.26486 50.1769 4.82112 49.9864 5.45345 50.0769C4.12698 52.4685 2.79576 54.8554 1.46929 57.247C0.879753 56.9707 1.53585 56.6658 1.44552 56.3751C2.11589 54.398 2.91937 52.4733 3.76565 50.5676H3.7704Z" fill="#467557"/>
<path d="M1.45026 56.375C1.59764 56.6609 1.15549 56.961 1.47403 57.2468C1.45026 57.6947 1.03188 57.9662 0.960561 58.395C0.565949 58.3378 0.746614 58.0853 0.789404 57.8852C0.998595 57.3802 1.10795 56.8276 1.45501 56.3798L1.45026 56.375Z" fill="#54855F"/>
<path d="M33.5469 44.2494C33.8084 43.9111 34.2838 44.2494 34.55 43.9302C34.6832 43.9254 34.8068 43.954 34.8829 44.0779C34.5215 44.3113 34.1745 44.5638 33.7228 44.5924C33.7846 44.5066 33.913 44.3971 33.8939 44.3399C33.8416 44.1874 33.6705 44.278 33.5516 44.2494H33.5469Z" fill="#98C083"/>
<path d="M0.785212 57.8789C0.828001 58.0552 0.751931 58.2696 0.956369 58.3887C0.785212 58.6698 0.65209 58.9842 0.433389 59.2272C0.319285 59.3558 0.328794 59.1224 0.28125 59.0557C0.447653 58.665 0.614055 58.2696 0.780458 57.8789H0.785212Z" fill="#6F9E6F"/>
<path d="M50.3398 59.2274C50.3398 59.1178 50.3398 59.013 50.3398 58.9034C50.3921 58.7986 50.4444 58.6986 50.4967 58.5938C50.782 58.6986 50.6964 59.0321 50.8676 59.2036C50.9341 59.4084 50.9579 59.5942 50.6489 59.5895C50.5443 59.4704 50.4444 59.3465 50.3398 59.2274Z" fill="#759F74"/>
<path d="M50.6523 59.589C50.8283 59.5176 50.8378 59.3556 50.871 59.2031C51.0137 59.4461 51.2752 59.6557 51.104 59.9987C50.8235 59.9987 50.7617 59.7701 50.6571 59.589H50.6523Z" fill="#A3BCA2"/>
<path d="M83.2725 34.4345C83.2487 34.2535 83.3105 34.0391 83.4722 34.0534C83.6909 34.0677 83.572 34.2964 83.572 34.4393C83.4722 34.4393 83.3723 34.4393 83.2677 34.4393L83.2725 34.4345Z" fill="#131313"/>
<path d="M33.0469 44.9203C33.1752 44.6154 33.4272 44.5583 33.7172 44.5964C33.5413 44.806 33.3036 44.8822 33.0469 44.9203Z" fill="#98C083"/>
<path d="M14.5966 33.6011C14.6156 33.3676 14.5157 33.1056 14.7582 32.9293C14.8628 32.8722 14.9722 32.815 15.0768 32.7578C15.0625 33.1247 14.8058 33.3533 14.5918 33.6011H14.5966Z" fill="#558F63"/>
<path d="M31.7207 44.583C31.9537 44.3067 32.2722 44.4544 32.5527 44.4163C32.3198 44.6926 32.0012 44.5449 31.7207 44.583Z" fill="#98C083"/>
<path d="M60.0814 37.832C59.8817 37.4127 59.877 37.1697 60.3096 36.822C62.102 35.3736 62.0783 32.4913 60.2859 31.1812C59.1258 30.3331 57.8136 30.3189 56.4729 30.6762C55.5933 30.9096 54.7233 31.1907 53.8437 31.4099C53.373 31.529 52.5267 31.305 53.2922 32.2483C53.4206 32.4056 53.354 32.7295 53.3588 32.9773C53.3588 34.8639 53.3588 36.7457 53.3588 38.6323C53.3588 39.3422 53.4729 40.0664 52.9023 40.7524H56.7581C56.0973 39.7805 56.4063 38.8181 56.3207 37.8987C56.2684 37.3365 56.5775 37.4079 56.9293 37.5128C57.5664 37.7081 57.6139 38.337 57.8421 38.8086C58.7359 40.6571 60.4285 41.4241 62.5347 40.8191C61.3461 40.0806 60.6424 39.0182 60.0814 37.832ZM57.6282 36.5599C57.2811 36.7695 56.8817 36.8839 56.5204 36.7362C56.1306 36.5742 56.354 36.1597 56.335 35.8596C56.3017 35.3069 56.3255 34.7543 56.3255 34.2017C56.3255 33.5918 56.3255 32.9868 56.3255 32.377C56.3255 31.6052 56.5965 31.4003 57.3287 31.6052C57.4332 31.6338 57.5331 31.6862 57.6234 31.7433C58.8358 32.4675 58.8358 35.8358 57.6234 36.5599H57.6282Z" fill="#131313"/>
<path d="M69.0532 30.7383C66.0199 30.7478 63.985 32.8774 64.004 36.0123C64.0231 38.8946 65.9438 40.7907 68.8297 40.7812C71.8535 40.7669 73.8646 38.6993 73.8598 35.593C73.8598 32.6297 71.9771 30.7288 69.0532 30.7383ZM70.1657 39.1423C69.9945 39.6664 69.6332 40.0666 69.0199 40.0666C68.3828 40.0666 68.0167 39.6711 67.7695 39.1328C67.2608 38.018 67.256 36.8269 67.218 35.8217C67.218 34.5544 67.2798 33.473 67.6697 32.4487C67.8741 31.9055 68.2021 31.4672 68.863 31.4625C69.5096 31.4529 69.9232 31.8436 70.1086 32.3915C70.8741 34.6306 70.8979 36.8936 70.1657 39.1471V39.1423Z" fill="#131313"/>
<path d="M98.3637 38.9995C97.37 36.4221 96.3526 33.8542 95.3732 31.2672C95.1593 30.7003 94.9596 30.4001 94.3272 30.8194C94.0372 31.0147 93.6664 31.091 93.3193 31.1862C92.8344 31.3149 92.0261 31.1958 92.6965 32.1105C92.7345 32.1629 92.6585 32.3153 92.6204 32.4154C91.5222 35.1786 90.6188 38.0181 89.3066 40.7813C89.7345 40.7813 90.1624 40.7813 90.5951 40.7813C90.8518 40.7813 90.9469 40.686 90.8756 40.4287C90.6616 39.6569 91.1751 39.0566 91.3843 38.3897C91.7314 37.2891 92.6537 38.0181 93.2955 37.8513C93.6854 37.7513 94.1228 37.8275 94.5364 37.837C94.7504 37.837 94.9929 37.7989 95.0784 38.0895C95.3066 38.847 95.8677 39.514 95.7155 40.3716C95.649 40.7575 95.8486 40.7813 96.1244 40.7813C97.1133 40.7813 98.107 40.7813 99.2433 40.7813C98.8154 40.1191 98.5824 39.5664 98.3637 38.9995ZM94.1323 37.0652C93.4144 37.0652 92.6965 37.0652 91.8645 37.0652C92.3019 35.8551 92.7203 34.7165 93.21 33.3635C93.7044 34.6069 94.1276 35.6455 94.5317 36.6889C94.6886 37.0938 94.3843 37.0652 94.1323 37.0652Z" fill="#131313"/>
</g>
<defs>
<clipPath id="clip0_1131_140">
<rect width="111" height="60" fill="white"/>
</clipPath>
</defs>
</svg>
