<svg width="45" height="45" viewBox="0 0 45 45" fill="none" xmlns="http://www.w3.org/2000/svg">
<path d="M45 9.62762L45 43.0706C45 43.5823 44.7967 44.0731 44.4349 44.4349C44.0731 44.7967 43.5823 45 43.0706 45L9.62762 45C9.11591 45 8.62516 44.7967 8.26333 44.4349C7.9015 44.0731 7.69822 43.5823 7.69822 43.0706C7.69822 42.5589 7.9015 42.0681 8.26333 41.7063C8.62516 41.3445 9.11591 41.1412 9.62762 41.1412L38.4079 41.1412L0.559429 3.26059C0.201233 2.9024 -3.77422e-09 2.41658 0 1.91001C3.77421e-09 1.40344 0.201233 0.917626 0.559429 0.559429C0.917626 0.201233 1.40344 3.77421e-09 1.91001 0C2.41658 -3.77421e-09 2.9024 0.201233 3.26059 0.559429L41.1412 38.4079L41.1412 9.62762C41.1412 9.11591 41.3445 8.62516 41.7063 8.26333C42.0681 7.9015 42.5589 7.69822 43.0706 7.69822C43.5823 7.69822 44.0731 7.9015 44.4349 8.26333C44.7967 8.62516 45 9.11591 45 9.62762Z" fill="black"/>
</svg>
