<svg width="10" height="11" viewBox="0 0 10 11" fill="none" xmlns="http://www.w3.org/2000/svg">
<path d="M0.0987803 10.8913C0.0675278 10.858 0.0426803 10.8181 0.0257118 10.774C0.00874324 10.7299 0 10.6825 0 10.6346C0 10.5868 0.00874324 10.5394 0.0257118 10.4953C0.0426803 10.4512 0.0675278 10.4113 0.0987803 10.3779L8.85819 0.733424H1.33227C1.24385 0.733424 1.15905 0.694788 1.09653 0.626016C1.03401 0.557244 0.998892 0.46397 0.998892 0.366712C0.998892 0.269454 1.03401 0.176179 1.09653 0.107407C1.15905 0.0386357 1.24385 0 1.33227 0H9.66663C9.75504 0 9.83984 0.0386357 9.90236 0.107407C9.96488 0.176179 10 0.269454 10 0.366712V9.53451C10 9.63176 9.96488 9.72504 9.90236 9.79381C9.83984 9.86258 9.75504 9.90122 9.66663 9.90122C9.57821 9.90122 9.49341 9.86258 9.43089 9.79381C9.36837 9.72504 9.33325 9.63176 9.33325 9.53451V1.25599L0.565505 10.8913C0.535204 10.9257 0.498933 10.953 0.458846 10.9717C0.418759 10.9904 0.375673 11 0.332143 11C0.288612 11 0.245526 10.9904 0.205439 10.9717C0.165352 10.953 0.129082 10.9257 0.0987803 10.8913Z" fill="#999999"/>
</svg>
